# AST/ASF file generated using VICON BodyLanguage
# -----------------------------------------------
:version 1.10
:name VICON
:units
  mass 1.0
  length 0.45
  angle deg
:documentation
   .ast/.asf automatically generated from VICON data using
   VICON BodyBuilder and BodyLanguage model FoxedUp or BRILLIANT.MOD
:root
   order TX TY TZ RX RY RZ
   axis XYZ
   position 0 0 0  
   orientation 0 0 0 
:bonedata
  begin
     id 1 
     name lhipjoint
     direction 0.645893 -0.654526 0.392961 
     length 2.38111 
     axis 0 0 0  XYZ
  end
  begin
     id 2 
     name lfemur
     direction 0.34202 -0.939693 0  
     length 6.6822  
     axis 0 0 20  XYZ
    dof rx ry rz
    limits (-160.0 20.0)
           (-70.0 70.0)
           (-60.0 70.0)
  end
  begin
     id 3 
     name ltibia
     direction 0.34202 -0.939693 0   
     length 6.93904   
     axis 0 0 20   XYZ
    dof rx
    limits (-10.0 170.0)
  end
  begin
     id 4 
     name lfoot
     direction 0.0694967 -0.190941 0.979138   
     length 2.13616   
     axis -90 7.62852e-016 20   XYZ
    dof rx rz
    limits (-45.0 90.0)
           (-70.0 20.0)
  end
  begin
     id 5 
     name ltoes
     direction 1.535e-011 -4.2202e-011 1   
     length 1.07536   
     axis -90 7.62852e-016 20   XYZ
    dof rx
    limits (-90.0 20.0)
  end
  begin
     id 6 
     name rhipjoint
     direction -0.700219 -0.612087 0.367481   
     length 2.54621  
     axis 0 0 0  XYZ 
  end
  begin
     id 7 
     name rfemur
     direction -0.34202 -0.939693 0   
     length 6.55353   
     axis 0 0 -20   XYZ
    dof rx ry rz
    limits (-160.0 20.0)
           (-70.0 70.0)
           (-70.0 60.0)
  end
  begin
     id 8 
     name rtibia
     direction -0.34202 -0.939693 0   
     length 6.8736   
     axis 0 0 -20   XYZ
    dof rx
    limits (-10.0 170.0)
 end
 begin
     id 9 
     name rfoot
     direction -0.0679995 -0.186827 0.980037   
     length 2.1218  
     axis -90 -7.62852e-016 -20   XYZ
    dof rx rz
    limits (-45.0 90.0)
           (-20.0 70.0)
  end
  begin
     id 10 
     name rtoes
     direction -1.53589e-011 -4.21772e-011 1   
     length 1.06864   
     axis -90 -7.62852e-016 -20   XYZ
    dof rx
    limits (-90.0 20.0)
  end
  begin
     id 11 
     name lowerback
     direction -0.0416607 0.996347 -0.0745409   
     length 2.12205   
     axis 0 0 0   XYZ
    dof rx ry rz
    limits (-20.0 45.0)
           (-30.0 30.0)
           (-30.0 30.0)
  end
  begin
     id 12 
     name upperback
     direction -0.000153993 0.999276 -0.0380568   
     length 2.12759   
     axis 0 0 0   XYZ
    dof rx ry rz
    limits (-20.0 45.0)
           (-30.0 30.0)
           (-30.0 30.0)
  end
  begin
     id 13 
     name thorax
     direction 0.0187671 0.999821 -0.00241421   
     length 2.13704   
     axis 0 0 0   XYZ
    dof rx ry rz
    limits (-20.0 45.0)
           (-30.0 30.0)
           (-30.0 30.0)
  end
  begin
     id 14 
     name lowerneck
     direction 0.0268157 0.964865 0.261374   
     length 1.65253   
     axis 0 0 0   XYZ
    dof rx ry rz
    limits (-20.0 45.0)
           (-30.0 30.0)
           (-30.0 30.0)
  end
  begin
     id 15 
     name upperneck
     direction 0.00263774 0.939908 -0.341418   
     length 1.72375   
     axis 0 0 0   XYZ
    dof rx ry rz
    limits (-20.0 45.0)
           (-30.0 30.0)
           (-30.0 30.0)
  end
  begin
     id 16
     name head
     direction -0.00526001 0.989001 -0.147818  
     length 1.74878  
     axis 0 0 0   XYZ
    dof rx ry rz
    limits (-20.0 45.0)
           (-30.0 30.0)
           (-30.0 30.0)
  end
  begin
     id 17 
     name lclavicle
     direction 0.881214 0.461162 -0.103884  
     length 3.25108  
     axis 0 0 0   XYZ
    dof ry rz
    limits (-20.0 10.0)
           (0.0 20.0)
  end
  begin
     id 18 
     name lhumerus
     direction 1 -4.4899e-011 3.38092e-027   
     length 4.87408   
     axis 180 -30 -90   XYZ
    dof rx ry rz
    limits (-60.0 90.0)
           (-90.0 90.0)
           (-90.0 90.0)
  end
  begin
     id 19
     name lradius
     direction 1 -4.48931e-011 9.96288e-027   
     length 2.76729   
     axis 180 -30 -90   XYZ
    dof rx
    limits (-10.0 170.0)
  end
  begin
     id 20
     name lwrist
     direction 1 -4.4896e-011 1.50617e-026   
     length 1.38364   
     axis -9.31234e-015 90 90   XYZ
    dof ry
    limits (-180.0 0.0)
 end
  begin
     id 21 
     name lhand
     direction 1 -4.49038e-011 3.01286e-026   
     length 0.98922   
     axis -1.92217e-014 90 90   XYZ
    dof rx rz
    limits (-90.0 90.0)
           (-45.0 45.0)
  end
  begin
     id 22 
     name lfingers
     direction 1 -4.49051e-011 6.02588e-026   
     length 0.797535   
     axis -3.84436e-014 90 90   XYZ
    dof rx
    limits (0.0 90.0)
  end
  begin
     id 23
     name lthumb
     direction 0.707107 -6.34901e-011 0.707107   
     length 1.14511   
     axis -90 45 2.19363e-014   XYZ
    dof rx rz
    limits (-45.0 45.0)
           (-45.0 45.0)
  end
  begin
     id 24 
     name rclavicle
     direction -0.893894 0.441652 -0.0767889   
     length 3.29361  
     axis 0 0 0   XYZ 
    dof ry rz
    limits (-10.0 20.0)
           (-20.0 0.0)
  end
  begin
     id 25 
     name rhumerus
     direction -1 -4.48945e-011 8.0491e-028  
     length 4.71404   
     axis 180 30 90   XYZ
    dof rx ry rz
    limits (-90.0 60.0)
           (-90.0 90.0)
           (-90.0 90.0)
  end
  begin
     id 26 
     name rradius
     direction -1 -4.48986e-011 9.27795e-027   
     length 2.83468   
     axis 180 30 90   XYZ
    dof rx
    limits (-10.0 170.0)
  end
  begin
     id 27 
     name rwrist
     direction -1 -4.49029e-011 1.5064e-026   
     length 1.41734   
     axis -9.31234e-015 -90 -90   XYZ
    dof ry
    limits (-180.0 0.0)
  end
  begin
     id 28
     name rhand
     direction -1 -4.48857e-011 3.01165e-026   
     length 0.868195   
     axis -1.92217e-014 -90 -90   XYZ
    dof rx rz
    limits (-90.0 90.0)
           (-45.0 45.0)
  end
  begin
     id 29
     name rfingers
     direction -1 -4.49048e-011 6.02585e-026   
     length 0.699961   
     axis -3.84436e-014 -90 -90   XYZ
    dof rx
    limits (0.0 90.0)
  end
  begin
     id 30
     name rthumb
     direction -0.707107 -6.34854e-011 0.707107   
     length 1.00501   
     axis -90 -45 -2.19363e-014   XYZ
    dof rx rz
    limits (-45.0 45.0)
           (-45.0 45.0)
  end
:hierarchy
  begin
    root lhipjoint rhipjoint lowerback
    lhipjoint lfemur
    lfemur ltibia
    ltibia lfoot
    lfoot ltoes
    rhipjoint rfemur
    rfemur rtibia
    rtibia rfoot
    rfoot rtoes
    lowerback upperback
    upperback thorax
    thorax lowerneck lclavicle rclavicle
    lowerneck upperneck
    upperneck head
    lclavicle lhumerus
    lhumerus lradius
    lradius lwrist
    lwrist lhand lthumb
    lhand lfingers
    rclavicle rhumerus
    rhumerus rradius
    rradius rwrist
    rwrist rhand rthumb
    rhand rfingers
  end

#!OML:ASF H:\ManfredObstacles\Project 1\Capture day 2\Session 1\male.ASF
:FULLY-SPECIFIED
:DEGREES
132
root 2.685 13.9101 -5.34698 -175.727 -22.732 178.99
lowerback 10.2341 -3.95488 -3.90021
upperback 4.99811 -6.01342 0.479601
thorax -0.0608918 -3.25813 3.25779
lowerneck -32.7866 0.0490762 -1.68014
upperneck 42.7247 -3.50368 1.64505
head 25.2684 -2.22709 -0.240139
rclavicle -3.08116e-014 -1.86858e-014
rhumerus -37.0391 5.79276 -86.4819
rradius 66.2869
rwrist 9.22092
rhand -13.8871 -7.64291
rfingers 7.12502
rthumb 12.238 -37.2649
lclavicle -3.08116e-014 -1.86858e-014
lhumerus -52.128 -32.3507 88.7565
lradius 77.4313
lwrist -21.1453
lhand -19.0494 7.41884
lfingers 7.12502
lthumb 7.25747 37.2744
rfemur -53.5622 3.38905 13.1622
rtibia 79.5111
rfoot -4.18734 -2.1187
rtoes -31.8917
lfemur -33.7625 -4.65449 -12.8552
ltibia 110.65
lfoot 1.56217 21.5032
ltoes -0.982281
133
root 2.69144 13.8105 -5.51646 -175.581 -22.62 179.217
lowerback 10.7602 -3.64672 -3.58296
upperback 4.76868 -5.58061 0.463169
thorax -0.655337 -3.01201 3.08721
lowerneck -32.9502 -0.316314 -1.91732
upperneck 42.5702 -4.03158 1.95958
head 25.2297 -2.37878 -0.161971
rclavicle -9.38264e-014 2.98177e-014
rhumerus -35.1847 7.6268 -87.0454
rradius 67.3156
rwrist 10.1269
rhand -14.198 -7.25756
rfingers 7.12502
rthumb 11.9382 -36.8972
lclavicle -9.38264e-014 2.98177e-014
lhumerus -50.6944 -33.1347 89.6269
lradius 77.1788
lwrist -22.1801
lhand -19.3434 6.8862
lfingers 7.12502
lthumb 6.97367 36.7513
rfemur -53.8284 3.55777 13.8351
rtibia 80.8973
rfoot -5.43433 -3.09738
rtoes -31.9346
lfemur -37.1565 -5.33153 -13.6597
ltibia 111.462
lfoot 0.64403 22.4079
ltoes -1.86563
134
root 2.69638 13.7276 -5.68446 -175.555 -22.3165 179.496
lowerback 11.3962 -3.25572 -3.23673
upperback 4.56057 -5.04114 0.409688
thorax -1.29539 -2.71595 2.84783
lowerneck -33.133 -0.708053 -2.14932
upperneck 42.3994 -4.63457 2.33438
head 25.1999 -2.54505 -0.0738147
rclavicle 1.75924e-014 -2.98177e-014
rhumerus -33.477 9.3412 -87.3026
rradius 68.5829
rwrist 10.9558
rhand -14.1191 -6.73021
rfingers 7.12502
rthumb 12.0143 -36.3654
lclavicle 1.75924e-014 -2.98177e-014
lhumerus -49.5159 -34.1452 90.5048
lradius 77.3291
lwrist -22.9461
lhand -19.6865 6.49403
lfingers 7.12502
lthumb 6.64247 36.3698
rfemur -53.9012 3.97464 14.6225
rtibia 82.1694
rfoot -6.53706 -4.3191
rtoes -31.8242
lfemur -40.2203 -5.92181 -14.3316
ltibia 111.827
lfoot -0.275545 23.362
ltoes -2.75321
135
root 2.70059 13.6315 -5.84917 -175.617 -21.8457 179.855
lowerback 12.0711 -2.82087 -2.83352
upperback 4.39369 -4.44052 0.327462
thorax -1.91595 -2.39537 2.52545
lowerneck -33.3754 -1.0998 -2.35078
upperneck 42.213 -5.26515 2.739
head 25.1924 -2.70818 0.0154308
rclavicle -1.5207e-014 9.14409e-015
rhumerus -31.7365 10.7956 -87.2285
rradius 69.8966
rwrist 11.6249
rhand -13.3804 -5.69212
rfingers 7.12502
rthumb 12.7265 -35.2843
lclavicle -1.5207e-014 9.14409e-015
lhumerus -48.5132 -35.2561 91.3038
lradius 77.8226
lwrist -23.4524
lhand -20.0197 6.28346
lfingers 7.12502
lthumb 6.32083 36.1692
rfemur -53.9709 4.59793 15.532
rtibia 83.4648
rfoot -7.5701 -5.74354
rtoes -31.5803
lfemur -43.1534 -6.35356 -14.7811
ltibia 111.994
lfoot -1.23976 24.3908
ltoes -3.58486
136
root 2.7033 13.5387 -6.01409 -175.694 -21.2395 180.225
lowerback 12.6985 -2.37621 -2.43746
upperback 4.2764 -3.82765 0.208842
thorax -2.4509 -2.0766 2.14599
lowerneck -33.6573 -1.47378 -2.53592
upperneck 41.9971 -5.87768 3.16954
head 25.1826 -2.85625 0.120633
rclavicle -2.16675e-014 1.07344e-014
rhumerus -29.9436 12.1658 -86.9957
rradius 71.1241
rwrist 12.5658
rhand -12.8082 -4.79549
rfingers 7.12502
rthumb 13.278 -34.3525
lclavicle -2.16675e-014 1.07344e-014
lhumerus -47.6216 -36.3576 91.9699
lradius 78.5756
lwrist -23.702
lhand -20.3236 6.24076
lfingers 7.12502
lthumb 6.02736 36.135
rfemur -53.9141 5.38378 16.4845
rtibia 84.6505
rfoot -8.66348 -7.33549
rtoes -31.2883
lfemur -45.9188 -6.63905 -15.1021
ltibia 111.865
lfoot -2.12402 25.5115
ltoes -4.31195
